<svg xmlns="http://www.w3.org/2000/svg" xmlns:xlink="http://www.w3.org/1999/xlink" preserveAspectRatio="xMidYMid" width="50.625" height="30.938" viewBox="0 0 50.625 30.938">
  <defs>
    <style>
      .cls-1 {
        fill: #272727;
        fill-rule: evenodd;
      }
    </style>
  </defs>
  <path d="M50.620,30.928 L36.258,30.928 L14.366,30.928 L0.004,30.928 L18.131,0.013 L25.312,12.259 L32.493,0.013 L50.620,30.928 ZM29.028,26.810 C27.830,24.768 26.578,22.633 25.312,20.473 C24.045,22.633 22.794,24.768 21.596,26.810 C24.128,26.810 26.637,26.810 29.028,26.810 ZM18.131,8.227 C14.659,14.149 10.722,20.864 7.235,26.810 C10.290,26.810 13.527,26.810 16.780,26.810 L22.904,16.366 C21.275,13.589 19.658,10.830 18.131,8.227 ZM33.844,26.810 C37.097,26.810 40.334,26.810 43.389,26.810 C39.902,20.864 35.965,14.149 32.493,8.227 C30.966,10.830 29.349,13.589 27.720,16.366 L33.844,26.810 Z" class="cls-1"/>
</svg>
